<svg xmlns="http://www.w3.org/2000/svg" width="1024" height="1024" viewBox="0 0 1024 1024">
  <defs>
    <linearGradient id="grad" x1="80" y1="120" x2="920" y2="920" gradientUnits="userSpaceOnUse">
      <stop offset="0" stop-color="#2EC9FF"/>
      <stop offset="1" stop-color="#7CF0A8"/>
    </linearGradient>
    <radialGradient id="coreGlow" cx="0" cy="0" r="1" gradientUnits="userSpaceOnUse"
      gradientTransform="translate(512 545) rotate(90) scale(130)">
      <stop offset="0" stop-color="#2EC9FF" stop-opacity="0.42"/>
      <stop offset="0.45" stop-color="#2EC9FF" stop-opacity="0.14"/>
      <stop offset="1" stop-color="#000000" stop-opacity="0"/>
    </radialGradient>
    <filter id="bloom" x="-30%" y="-30%" width="160%" height="160%">
      <feGaussianBlur stdDeviation="10" result="blur"/>
      <feColorMatrix in="blur" type="matrix"
        values="1 0 0 0 0
                0 1 0 0 0
                0 0 1 0 0
                0 0 0 18 -7" result="bloomOut"/>
      <feMerge>
        <feMergeNode in="bloomOut"/>
        <feMergeNode in="SourceGraphic"/>
      </feMerge>
    </filter>
    <filter id="softGlow" x="-30%" y="-30%" width="160%" height="160%">
      <feGaussianBlur stdDeviation="18" result="g"/>
      <feMerge>
        <feMergeNode in="g"/>
        <feMergeNode in="SourceGraphic"/>
      </feMerge>
    </filter>
    <filter id="grain">
      <feTurbulence type="fractalNoise" baseFrequency="0.9" numOctaves="2" stitchTiles="stitch" seed="4"/>
      <feColorMatrix type="matrix"
        values="0 0 0 0 0
                0 0 0 0 0
                0 0 0 0 0
                0 0 0 0.18 0"/>
    </filter>
    <linearGradient id="strokeGrad" x1="0" y1="0" x2="1" y2="1">
      <stop offset="0" stop-color="#2EC9FF" stop-opacity="0.95"/>
      <stop offset="1" stop-color="#7CF0A8" stop-opacity="0.95"/>
    </linearGradient>
  </defs>
  <!-- Background -->
  <rect width="1024" height="1024" fill="#070b14"/>
  <!-- Subtle viewport glow -->
  <g opacity="1">
    <ellipse cx="190" cy="110" rx="520" ry="320" fill="#2EC9FF" opacity="0.14" filter="url(#softGlow)"/>
    <ellipse cx="880" cy="140" rx="420" ry="280" fill="#7CF0A8" opacity="0.10" filter="url(#softGlow)"/>
    <ellipse cx="540" cy="1020" rx="420" ry="240" fill="#976FFF" opacity="0.08" filter="url(#softGlow)"/>
  </g>
  <!-- Card / frame -->
  <g>
    <!-- Outer glow -->
    <rect x="84" y="84" width="856" height="856" rx="22"
          fill="rgba(255,255,255,0.03)" filter="url(#softGlow)"/>
    <rect x="84" y="84" width="856" height="856" rx="22"
          fill="rgba(255,255,255,0.045)" stroke="rgba(255,255,255,0.12)" stroke-width="2"/>
  </g>
  <!-- Mountain motif (abstract) -->
  <g opacity="0.55">
    <defs>
      <linearGradient id="mountGrad" x1="640" y1="720" x2="1020" y2="1020" gradientUnits="userSpaceOnUse">
        <stop offset="0" stop-color="#2EC9FF" stop-opacity="0.22"/>
        <stop offset="1" stop-color="#7CF0A8" stop-opacity="0.18"/>
      </linearGradient>
    </defs>
    <path d="M642 820
             C720 760, 770 700, 820 715
             C855 726, 885 760, 920 785
             L980 890
             L642 890 Z"
          fill="url(#mountGrad)"/>
    <path d="M730 822 L865 750" stroke="url(#grad)" stroke-width="7" stroke-linecap="round" opacity="0.55"/>
  </g>
  <!-- Network -->
  <g filter="url(#bloom)">
    <!-- Core glow -->
    <circle cx="512" cy="545" r="130" fill="url(#coreGlow)"/>
  </g>
  <!-- Curved links -->
  <g fill="none" stroke="url(#strokeGrad)" stroke-linecap="round" stroke-width="3.8" filter="url(#bloom)" opacity="0.95">
    <path d="M512 545 C 450 470, 380 410, 295 330" opacity="0.95"/>
    <path d="M512 545 C 465 580, 405 640, 315 670" opacity="0.92"/>
    <path d="M512 545 C 585 440, 650 390, 725 420" opacity="0.95"/>
    <path d="M512 545 C 595 620, 665 675, 760 690" opacity="0.90"/>
    <path d="M512 545 C 440 675, 430 760, 360 725" opacity="0.90"/>
  </g>
  <!-- Secondary faint links -->
  <g fill="none" stroke="rgba(255,255,255,0.22)" stroke-width="1.7" opacity="0.5">
    <path d="M512 545 C 450 470, 380 410, 295 330"/>
    <path d="M512 545 C 465 580, 405 640, 315 670"/>
    <path d="M512 545 C 585 440, 650 390, 725 420"/>
    <path d="M512 545 C 595 620, 665 675, 760 690"/>
    <path d="M512 545 C 440 675, 430 760, 360 725"/>
  </g>
  <!-- Nodes (pulsing halos + gradient cores) -->
  <g>
    <!-- Halo circles -->
    <g opacity="1">
      <circle cx="295" cy="330" r="26" fill="#2EC9FF" opacity="0.10" filter="url(#softGlow)"/>
      <circle cx="315" cy="670" r="24" fill="#7CF0A8" opacity="0.10" filter="url(#softGlow)"/>
      <circle cx="725" cy="420" r="26" fill="#2EC9FF" opacity="0.10" filter="url(#softGlow)"/>
      <circle cx="760" cy="690" r="24" fill="#7CF0A8" opacity="0.10" filter="url(#softGlow)"/>
      <circle cx="360" cy="725" r="23" fill="#2EC9FF" opacity="0.10" filter="url(#softGlow)"/>
    </g>
    <!-- Gradient cores -->
    <g>
      <circle cx="295" cy="330" r="16" fill="url(#grad)"/>
      <circle cx="315" cy="670" r="15" fill="url(#grad)"/>
      <circle cx="725" cy="420" r="16" fill="url(#grad)"/>
      <circle cx="760" cy="690" r="15" fill="url(#grad)"/>
      <circle cx="360" cy="725" r="14.5" fill="url(#grad)"/>
      <!-- Subtle rings -->
      <circle cx="295" cy="330" r="16.8" fill="none" stroke="rgba(255,255,255,0.10)" stroke-width="2"/>
      <circle cx="315" cy="670" r="15.8" fill="none" stroke="rgba(255,255,255,0.10)" stroke-width="2"/>
      <circle cx="725" cy="420" r="16.8" fill="none" stroke="rgba(255,255,255,0.10)" stroke-width="2"/>
      <circle cx="760" cy="690" r="15.8" fill="none" stroke="rgba(255,255,255,0.10)" stroke-width="2"/>
      <circle cx="360" cy="725" r="15.2" fill="none" stroke="rgba(255,255,255,0.10)" stroke-width="2"/>
    </g>
  </g>
  <!-- Tool/action abstract glyphs (non-logo) -->
  <g stroke-linecap="round" stroke-linejoin="round">
    <!-- Terminal-like glyph near top-left node -->
    <g transform="translate(275 300) scale(1.0)" opacity="0.95" filter="url(#bloom)">
      <rect x="-22" y="-20" width="44" height="32" rx="10" fill="rgba(255,255,255,0.04)" stroke="url(#grad)" stroke-width="3"/>
      <path d="M-7 -2 L 10 -2" stroke="rgba(255,255,255,0.35)" stroke-width="2"/>
      <circle cx="12" cy="-10" r="4" fill="rgba(124,240,168,0.18)"/>
      <path d="M-2 -14 L -2 -10" stroke="rgba(46,201,255,0.65)" stroke-width="2"/>
    </g>
    <!-- Plug-like glyph near bottom-left node -->
    <g transform="translate(330 705) scale(1.0)" opacity="0.95" filter="url(#bloom)">
      <rect x="-28" y="-22" width="56" height="44" rx="14" fill="rgba(255,255,255,0.04)" stroke="url(#grad)" stroke-width="3"/>
      <path d="M-14 -22 L -4 -32" stroke="url(#grad)" stroke-width="3"/>
      <path d="M14 -22 L 4 -32" stroke="url(#grad)" stroke-width="3"/>
      <path d="M-8 -2 C -26 0, -20 18, -6 18" stroke="url(#grad)" stroke-width="3" fill="none" opacity="0.75"/>
      <circle cx="20" cy="10" r="4" fill="rgba(46,201,255,0.18)"/>
    </g>
    <!-- Wrench-like glyph near top-right node -->
    <g transform="translate(705 405) scale(1.0)" opacity="0.95" filter="url(#bloom)">
      <circle cx="0" cy="0" r="11.5" fill="rgba(255,255,255,0.04)" stroke="url(#grad)" stroke-width="3"/>
      <path d="M-18 16 L 18 -18" stroke="url(#grad)" stroke-width="3"/>
      <path d="M-8 28 L 22 6" stroke="url(#grad)" stroke-width="3" opacity="0.85"/>
      <circle cx="-6" cy="2" r="4" fill="rgba(124,240,168,0.18)"/>
    </g>
    <!-- Terminal-like glyph near bottom-right node -->
    <g transform="translate(740 675) scale(1.0)" opacity="0.95" filter="url(#bloom)">
      <rect x="-20" y="-18" width="40" height="30" rx="10" fill="rgba(255,255,255,0.04)" stroke="url(#grad)" stroke-width="3"/>
      <path d="M-6 -2 L 12 -2" stroke="rgba(255,255,255,0.35)" stroke-width="2"/>
      <circle cx="12" cy="-8" r="4" fill="rgba(46,201,255,0.18)"/>
    </g>
    <!-- Plug-like small glyph near center-bottom-left -->
    <g transform="translate(350 760) scale(0.95)" opacity="0.9" filter="url(#bloom)">
      <rect x="-22" y="-18" width="44" height="36" rx="12" fill="rgba(255,255,255,0.035)" stroke="url(#grad)" stroke-width="3"/>
      <path d="M-11 -18 L -2 -28" stroke="url(#grad)" stroke-width="3"/>
      <path d="M11 -18 L 2 -28" stroke="url(#grad)" stroke-width="3"/>
    </g>
  </g>
  <!-- Subtle grain overlay -->
  <rect width="1024" height="1024" filter="url(#grain)" opacity="0.35"/>
</svg>